<svg xmlns="http://www.w3.org/2000/svg" width="116.172" height="103.481" viewBox="0 0 116.172 103.481"><g transform="translate(1279.192 -2268)"><circle cx="1.784" cy="1.784" r="1.784" transform="translate(-1276.398 2366.969)" fill="#2374de"/><rect width="4.692" height="4.692" transform="translate(-1250.137 2365.752)" fill="#00ff2b"/><circle cx="1.784" cy="1.784" r="1.784" transform="translate(-1251.893 2367.1)" fill="#5d5d5d"/><line x2="112.166" transform="translate(-1279.192 2370.481)" fill="none" stroke="#3f3d56" stroke-miterlimit="10" stroke-width="2"/><g transform="translate(-1276.8 2268)"><circle cx="7.415" cy="7.415" r="7.415" transform="translate(70.566 54.966)" fill="#f2f2f2"/><circle cx="7.415" cy="7.415" r="7.415" transform="translate(36.73 54.966)" fill="#f2f2f2"/><rect width="18.127" height="21.532" transform="translate(33.654 3.003)" fill="#f2f2f2"/><path d="M671.564,65.649H648.639V40.966h22.925Zm-22.631-.294H671.27V41.26H648.933Z" transform="translate(-615.132 -40.966)" fill="#3f3d56"/><path d="M671.564,438.177H648.639V413.495h22.925Zm-22.631-.294H671.27V413.789H648.933Z" transform="translate(-615.132 -364.938)" fill="#3f3d56"/><path d="M414.5,438.177H391.578V413.495H414.5Zm-22.631-.294h22.337V413.789H391.872Z" transform="translate(-391.578 -364.938)" fill="#3f3d56"/><path d="M928.626,438.177H905.7V413.495h22.925ZM906,437.883h22.337V413.789H906Z" transform="translate(-838.688 -364.938)" fill="#3f3d56"/><rect width="0.294" height="24.169" transform="translate(44.822 24.535)" fill="#3f3d56"/><path d="M427.273,281.787h-.294V268.312H360.26v13.475h-.294V268.018h67.307Z" transform="translate(-348.651 -233.083)" fill="#3f3d56"/><rect width="15.051" height="0.294" transform="translate(33.654 9.841)" fill="#3f3d56"/><rect width="15.051" height="0.294" transform="translate(33.654 13.842)" fill="#3f3d56"/><rect width="15.051" height="0.294" transform="translate(33.654 17.843)" fill="#3f3d56"/><circle cx="8.898" cy="8.898" r="8.898" transform="translate(2.564 52)" fill="#2374de"/><path d="M329.315,428.949h-4.724v-4.724h-1.758v4.724h-4.724v1.758h4.724v4.724h1.758v-4.724h4.724Z" transform="translate(-312.25 -368.93)" fill="#fff"/><path d="M676.227,456.871a9.045,9.045,0,1,1,9.045-9.045A9.045,9.045,0,0,1,676.227,456.871Zm0-17.8a8.751,8.751,0,1,0,8.751,8.751A8.751,8.751,0,0,0,676.227,439.074Z" transform="translate(-631.258 -386.927)" fill="#3f3d56"/><path d="M703.965,502.357h-11.5V500.3h11.5Zm-11.206-.294h10.912V500.6H692.76Z" transform="translate(-653.247 -440.433)" fill="#3f3d56"/><path d="M933.289,456.871a9.045,9.045,0,1,1,9.045-9.045,9.045,9.045,0,0,1-9.045,9.045Zm0-17.8a8.751,8.751,0,1,0,8.751,8.751A8.752,8.752,0,0,0,933.289,439.074Z" transform="translate(-854.813 -386.927)" fill="#3f3d56"/><path d="M960.478,493.359v-1.569H952.9v-2.052h7.58v-1.584l3.123,2.7Zm-7.286-1.863h7.58v1.25l2.37-1.9-2.37-2.047v1.236h-7.58Z" transform="translate(-879.733 -429.865)" fill="#3f3d56"/><path d="M574.079,510.235l-11.006,14.392v5.768l14.365-20.16Z" transform="translate(-489.96 -431.737)" fill="#3f3d56"/><path d="M569.35,510.235l-6.277,7.575V524.2l10.678-13.963Z" transform="translate(-489.96 -431.737)" fill="#3f3d56"/><path d="M569.011,510.235h-5.938V517.4Z" transform="translate(-489.96 -431.737)" fill="#3f3d56"/><path d="M577.758,510.235l-14.685,20.609v3.505h36.5V510.235Z" transform="translate(-489.96 -431.737)" fill="#3f3d56"/><circle cx="10.297" cy="10.297" r="10.297" transform="translate(93.186 53.863)" fill="#2f2e41"/><rect width="3.128" height="5.605" transform="translate(108.175 77.846) rotate(180)" fill="#2f2e41"/><rect width="3.128" height="5.605" transform="translate(101.919 77.846) rotate(180)" fill="#2f2e41"/><ellipse cx="2.607" cy="0.978" rx="2.607" ry="0.978" transform="translate(102.962 76.934)" fill="#2f2e41"/><ellipse cx="2.607" cy="0.978" rx="2.607" ry="0.978" transform="translate(96.705 76.804)" fill="#2f2e41"/><circle cx="3.519" cy="3.519" r="3.519" transform="translate(99.703 58.034)" fill="#fff"/><circle cx="1.173" cy="1.173" r="1.173" transform="translate(102.049 60.38)" fill="#3f3d56"/><path d="M934.368,376.007c.831-3.724-1.826-7.486-5.936-8.4s-8.116,1.357-8.947,5.081,1.892,5.1,6,6.015S933.537,379.731,934.368,376.007Z" transform="translate(-820.897 -321.423)" fill="#2374de"/></g></g></svg>