<svg xmlns="http://www.w3.org/2000/svg" width="126.288" height="128.024" viewBox="0 0 126.288 128.024"><path d="M557.359,426.707l45.6-.081a.307.307,0,1,0,0-.615l-45.6.081a.307.307,0,1,0,0,.615Z" transform="translate(-504.117 -367.701)" fill="#3f3d56"/><circle cx="4.302" cy="4.302" r="4.302" transform="translate(48.259 54.703)" fill="#3f3d56"/><path d="M646.994,239.695A29.492,29.492,0,1,1,676.486,210.2,29.492,29.492,0,0,1,646.994,239.695Zm0-56.95A27.458,27.458,0,1,0,674.452,210.2,27.458,27.458,0,0,0,646.994,182.745Z" transform="translate(-550.197 -180.711)" fill="#3f3d56"/><path d="M696,278.7a5.458,5.458,0,1,1,5.454-5.462A5.458,5.458,0,0,1,696,278.7Zm-12.725,0a5.46,5.46,0,0,1-5.454-5.454V260.521a5.454,5.454,0,0,1,10.908,0v12.725a5.46,5.46,0,0,1-5.454,5.454Zm-12.722,0a5.464,5.464,0,0,1-5.458-5.458v-5.084a5.458,5.458,0,1,1,10.916,0v5.084A5.464,5.464,0,0,1,670.549,278.7Z" transform="translate(-586.475 -237.392)" fill="#2374de"/><path d="M367.793,598.727v.495a3.094,3.094,0,0,0,3.091,3.091H397.1a3.093,3.093,0,0,0,3.091-3.091v-.495a3.069,3.069,0,0,0-.717-1.978,3.185,3.185,0,0,0-.522-.495h-13.6a.619.619,0,0,1-.618-.618H370.884A3.1,3.1,0,0,0,367.793,598.727Z" transform="translate(-359.846 -497.005)" fill="#3f3d56"/><rect width="3.215" height="22.752" transform="translate(25.631 127.938) rotate(180)" fill="#3f3d56"/><path d="M390.167,708.5c0,.347,4.872.134,10.882.134s10.882.213,10.882-.134-4.872-3.1-10.882-3.1S390.167,708.156,390.167,708.5Z" transform="translate(-376.902 -580.678)" fill="#3f3d56"/><path d="M384.632,585.285l10.971,1.751,12.746,2.035,4.419.7a1.623,1.623,0,0,0,1.855-1.345l.2-1.251.185-1.165.153-.96a1.6,1.6,0,0,0-.307-1.227,1.566,1.566,0,0,0-.6-.495H397.149a.619.619,0,0,1-.618-.618v-.487a.619.619,0,0,1,.618-.618h6.722l-3.1-.495-9.526-1.521-5.562-.888a1.626,1.626,0,0,0-1.86,1.348l-.539,3.373A1.629,1.629,0,0,0,384.632,585.285Z" transform="translate(-371.64 -484.085)" fill="#2374de"/><path d="M488.79,599.719v18.847a1.622,1.622,0,0,0,1.62,1.62h3.42a1.622,1.622,0,0,0,1.62-1.62V599.719a1.6,1.6,0,0,0-.339-.987,1.563,1.563,0,0,0-.628-.495h-4.728a1.572,1.572,0,0,0-.626.495,1.6,1.6,0,0,0-.339.987Z" transform="translate(-452.081 -498.989)" fill="#2374de"/><path d="M445.4,456.02a1.633,1.633,0,0,0,.129.487,1.6,1.6,0,0,0,.462.606l.008,0,9.759,7.916.143.114,2.021,1.64.611.495H469.1l-.608-.495-8.352-6.776-5.6-4.541-4.355-3.531a1.6,1.6,0,0,0-.9-.356l0,0a1.641,1.641,0,0,0-.292,0,1.56,1.56,0,0,0-.423.1,1.19,1.19,0,0,0-.262.134,1.561,1.561,0,0,0-.4.354l-2.122,2.614-.032.042A1.608,1.608,0,0,0,445.4,456.02Z" transform="translate(-418.997 -387.19)" fill="#2374de"/><path d="M447,457.054a4.01,4.01,0,0,0,.789,1.244l6.5,6.979a1.62,1.62,0,0,0,2.292-.1l.181-.205.079-.089,2.807-3.148,1.207-1.355a1.427,1.427,0,0,0,.208-.277c.03-.049.057-.1.082-.153a1.64,1.64,0,0,0,.136-.735,1.6,1.6,0,0,0-.532-1.13l-7.533-5.757a4.034,4.034,0,0,0-2.918-.806l0,0a4.241,4.241,0,0,0-.683.143c-.1.027-.2.062-.294.1a3.986,3.986,0,0,0-1.645,1.162,4.038,4.038,0,0,0-.668,4.133Z" transform="translate(-419.999 -387.126)" fill="#2f2e41"/><circle cx="12.396" cy="12.396" r="12.396" transform="translate(11.519 33.855)" fill="#2374de"/><path d="M416.7,578.1l4.6.732.1.017,6.989,1.115,4.4.7,6.475,1.034.185.03.962.153,4.419.7a1.623,1.623,0,0,0,1.855-1.345l.386-2.414.153-.96c0-.005,0-.01,0-.015H421.59a.618.618,0,0,1-.618-.618v-.487a.619.619,0,0,1,.618-.618h8.1v-2.7l-.495-.079-2.443-.391-9.009-1.437a1.623,1.623,0,0,0-1.857,1.345l-.2,1.249-.339,2.127A1.624,1.624,0,0,0,416.7,578.1Z" transform="translate(-396.082 -478.612)" fill="#2374de"/><path d="M363.995,465.545c0,10.105,1.026,16.149,16.854,14.418l.064-.007a47,47,0,0,0,8.342-1.6,24.774,24.774,0,0,0,4.115-1.612c.312-.158.611-.324.905-.495H382.459a.618.618,0,0,1-.618-.618v-.487a.618.618,0,0,1,.618-.618h8.1V458.91a1.815,1.815,0,0,1,1.813-1.813h6.591c-.057-.163-.114-.329-.176-.495a40.51,40.51,0,0,0-2.194-4.991,38.067,38.067,0,0,0-4.1-6.326,26.346,26.346,0,0,0-3.67-3.757,12.7,12.7,0,0,0-7.921-3.314C370.8,438.215,363.995,455.44,363.995,465.545Z" transform="translate(-356.951 -377.004)" fill="#2f2e41"/><path d="M433.831,369.318l-.013-.463a3.831,3.831,0,0,0,2.192-.5,1.424,1.424,0,0,0,.552-1.049.814.814,0,0,0-.267-.67,1.4,1.4,0,0,0-1.433-.013l-.383.176.735-5.371.459.063-.625,4.569a1.635,1.635,0,0,1,1.547.223,1.267,1.267,0,0,1,.431,1.04,1.884,1.884,0,0,1-.741,1.407A4.263,4.263,0,0,1,433.831,369.318Z" transform="translate(-410.176 -318.474)" fill="#2f2e41"/><rect width="2.495" height="0.463" transform="translate(27.765 43.416)" fill="#2f2e41"/><rect width="2.495" height="0.463" transform="translate(19.89 43.416)" fill="#2f2e41"/><path d="M348.384,302.506a5.607,5.607,0,0,1,4.333-2.216,19.854,19.854,0,0,1,5.54.547,14.782,14.782,0,0,0,6.2.261,6.115,6.115,0,0,0,4.157-3.358,7.822,7.822,0,0,0,.455-5.215,9.48,9.48,0,0,0-3.1-4.707,15.9,15.9,0,0,0-10.722-3.53,18.128,18.128,0,0,0-10.509,3.7,17.069,17.069,0,0,0-6.055,9.489,17.794,17.794,0,0,0,.862,11.192c.836,1.938,2.044,3.686,2.977,5.576a8.294,8.294,0,0,1,1,5.767,5.35,5.35,0,0,1-3.613,3.719A3.794,3.794,0,0,1,335.687,322a3.173,3.173,0,0,1,5.061-3.83,3.314,3.314,0,0,1,.663,2.429c-.065.437.6.626.67.185a3.92,3.92,0,0,0-7.308-2.531,4.235,4.235,0,0,0,.64,4.551,4.436,4.436,0,0,0,4.523,1.626,5.988,5.988,0,0,0,4.025-3.581,7.728,7.728,0,0,0-.339-5.864c-.825-1.993-2.049-3.781-3.018-5.7a16.237,16.237,0,0,1-1.648-5.548,17.554,17.554,0,0,1,2.5-11.119,16.315,16.315,0,0,1,8.986-6.829,17.05,17.05,0,0,1,11.282.3c3.531,1.391,6.94,4.423,6.9,8.494a6.26,6.26,0,0,1-2,4.673c-1.592,1.386-3.809,1.5-5.81,1.289s-3.97-.806-5.993-.956a9.361,9.361,0,0,0-5.229.879,5.227,5.227,0,0,0-1.816,1.685c-.248.374.353.722.6.351Z" transform="translate(-334.362 -259.661)" fill="#2f2e41"/><path d="M401.188,475a1.305,1.305,0,0,0,.067.131,1.414,1.414,0,0,0,.082.129l5.421,7.8.42.606,4.422,6.361,4.266,6.141,1.726,2.488a1.448,1.448,0,0,0,.156.19,1.615,1.615,0,0,0,1.011.495h.044V488.729l-.495-.712-5.547-7.983-5.958-8.574a1.623,1.623,0,0,0-2.256-.408l-1.828,1.269-.982.683A1.62,1.62,0,0,0,401.188,475Z" transform="translate(-385.194 -401.815)" fill="#2374de"/><path d="M396.688,468.96l.245.492,0,0,.067.131,3.974,7.889a1.626,1.626,0,0,0,2.228.544l.257-.161.064-.04,5.124-3.215a1.619,1.619,0,0,0,.539-2.236l-5.629-7.632a4.046,4.046,0,0,0-4.941-1.276,3.979,3.979,0,0,0-.549.3,4.047,4.047,0,0,0-1.382,5.2Z" transform="translate(-381.542 -395.968)" fill="#2f2e41"/><path d="M520.855,598.238v18.62a1.622,1.622,0,0,0,1.62,1.62h3.42a1.622,1.622,0,0,0,1.62-1.62v-18.62Z" transform="translate(-476.524 -498.989)" fill="#2374de"/><path d="M436.989,534.114v.487a1.117,1.117,0,0,0,.9,1.093c.035,0,.069.012.1.015s.074,0,.114,0h38.125a2.31,2.31,0,0,0,2.31-2.307V517.876a2.31,2.31,0,0,0-2.31-2.307H448.017a2.31,2.31,0,0,0-2.307,2.307V533H438.1A1.113,1.113,0,0,0,436.989,534.114Z" transform="translate(-412.594 -435.97)" fill="#fff"/><path d="M436.989,534.114v.487a1.117,1.117,0,0,0,.9,1.093c.035,0,.069.012.1.015s.074,0,.114,0h38.125a2.31,2.31,0,0,0,2.31-2.307V517.876a2.31,2.31,0,0,0-2.31-2.307H448.017a2.31,2.31,0,0,0-2.307,2.307V533H438.1A1.113,1.113,0,0,0,436.989,534.114Zm.495.487v-.487a.618.618,0,0,1,.618-.618h8.1v-15.62a1.815,1.815,0,0,1,1.813-1.813h28.211a1.816,1.816,0,0,1,1.815,1.813v15.531a1.816,1.816,0,0,1-1.815,1.813H438.1a.619.619,0,0,1-.618-.618Z" transform="translate(-412.594 -435.97)" fill="#3f3d56"/><circle cx="1.902" cy="1.902" r="1.902" transform="translate(47.627 87.77)" fill="#00ff2b"/><rect width="0.495" height="2.226" transform="translate(33.123 97.293)" fill="#3f3d56"/></svg>