<svg xmlns="http://www.w3.org/2000/svg" width="22" height="22" viewBox="0 0 22 22"><g transform="translate(-562 -313.351)"><rect width="22" height="22" rx="3" transform="translate(562 313.351)" fill="#fff"/><g transform="translate(565.193 316.391)"><g transform="translate(0 0)"><g transform="translate(0)"><path d="M6.825,4.156A7.456,7.456,0,0,1,13.707-.005,7.337,7.337,0,0,1,18.261,1.63c.266.211.39.353.063.644-.536.479-1.027,1.008-1.53,1.522-.172.176-.31.3-.56.083A4.451,4.451,0,0,0,9.35,5.863a1.749,1.749,0,0,1-.124.209,9.949,9.949,0,0,1-2.4-1.742C6.783,4.3,6.8,4.215,6.825,4.156Z" transform="translate(-5.96 0.006)" fill="#e94335"/><path d="M18.609,77.36a7.581,7.581,0,0,1-8.588.969A7.039,7.039,0,0,1,6.85,75.018,6.356,6.356,0,0,1,9.269,73.15a11.808,11.808,0,0,0,.839,1.423,4.685,4.685,0,0,0,6.128.98c.427.019.689.337.977.577C17.69,76.525,18.286,76.791,18.609,77.36Z" transform="translate(-6.003 -64.088)" fill="#34a753"/><path d="M66.188,56.543l-2.373-1.807a4.125,4.125,0,0,0,1.35-1.8c.15-.408.107-.6-.4-.588-1.028.027-2.057-.01-3.084.017-.41.01-.541-.124-.523-.525.028-.655.022-1.314,0-1.972-.01-.339.1-.477.452-.476,2.1.011,4.2,0,6.293,0,.211,0,.372,0,.452.281A7.592,7.592,0,0,1,66.188,56.543Z" transform="translate(-53.582 -43.271)" fill="#4285f3"/><path d="M3.278,38.49.859,40.358A7.116,7.116,0,0,1,.878,33.59l2.406,1.916a6.158,6.158,0,0,0,0,2.984Z" transform="translate(-0.012 -29.428)" fill="#fabb05"/></g></g></g></g></svg>