<svg xmlns="http://www.w3.org/2000/svg" viewBox="0 0 296.81 208.54"><defs><style>.cls-1{font-size:73.84px;font-family:Lora-SemiBold, Lora;font-weight:600;}</style></defs><title>logo-wde</title><g id="logo-wde" data-name="logo-wde"><g id="logo-wde"><path id="arrow" d="M108,171.6c.43-4.15.73-8.33,1.33-12.45a124.41,124.41,0,0,1,10.29-35c7.25-15.45,17.53-28.37,31.82-37.91a93.34,93.34,0,0,1,32.43-13.42A132.31,132.31,0,0,1,210.07,70l1.51-.06V29.81L296.81,94l-85.19,66.68V115.18h-2.88a229.33,229.33,0,0,0-29.52,1.65c-11.21,1.47-22,4.28-31.78,10.17-8.58,5.15-15.57,12.05-21.82,19.76a221.24,221.24,0,0,0-16.37,23.66l-.82,1.29Z"/><path id="square" d="M0,45.7c.25-.77.48-1.55.75-2.31a14.06,14.06,0,0,1,13.34-9.14c2.64,0,5.28,0,7.92,0H95.35c-.61.49-.93.78-1.28,1C83.67,42.82,73.86,51,65.33,60.45a2.59,2.59,0,0,1-1.74.58q-16.71,0-33.41,0H28.34V181.63H211.69v-4.11c0-3.19,0-6.38,0-9.58a2,2,0,0,1,.57-1.4c9.09-7.15,18.21-14.27,27.52-21.54,0,.55.1.92.1,1.29q0,24.28,0,48.56c0,7.87-6.07,13.65-14.36,13.67-13.92,0-27.84,0-41.76,0H15c-6.46,0-11.15-2.59-13.87-8.19A26.8,26.8,0,0,1,0,197Z"/><g id="letters"><text class="cls-1" transform="translate(119.96 62.76)">D</text><text class="cls-1" transform="translate(36.07 171.71)">W</text></g></g></g></svg>