<svg xmlns="http://www.w3.org/2000/svg" width="404.993" height="165.51" viewBox="0 0 404.993 165.51"><g transform="translate(3426 -3441)"><path d="M743.814,392.067a4.823,4.823,0,0,1,6.527,3.031,4.647,4.647,0,0,1,.14.629l19.258,9.55,4.457-2.954,5.545,6.384-6.805,5.527a4.886,4.886,0,0,1-5.83.225l-19.539-13.512a4.623,4.623,0,0,1-.445.162,4.823,4.823,0,0,1-6.141-3.752,4.687,4.687,0,0,1-.071-.587,4.837,4.837,0,0,1,2.9-4.7Z" transform="translate(-3902.647 3106.517)" fill="#ffb8b8"/><path d="M202.8,456.575a2.849,2.849,0,0,0,2.849,2.849h4.65l.829,1.5V527.58a2.849,2.849,0,0,0,5.7,0V459.424H372.815l.043,68.156a2.849,2.849,0,0,0,5.7,0V459.424h5.04a2.849,2.849,0,1,0,0-5.7H205.645a2.849,2.849,0,0,0-2.849,2.849Z" transform="translate(-3600.396 3071.662)" fill="#e5e5e5"/><path d="M296.089,536.4V525.88a1.753,1.753,0,0,0-1.753-1.753H254.45a1.753,1.753,0,0,0-1.753,1.753V536.4Z" transform="translate(-3628.425 3032.118)" fill="#e5e5e5"/><rect width="43.392" height="13.587" transform="translate(-3375.728 3572.463)" fill="#e5e5e5"/><path d="M252.7,601.127v10.519a1.753,1.753,0,0,0,1.753,1.753h39.886a1.753,1.753,0,0,0,1.753-1.753V601.127Z" transform="translate(-3628.425 2988.868)" fill="#e5e5e5"/><circle cx="1.315" cy="1.315" r="1.315" transform="translate(-3355.127 3561.505)" fill="#fff"/><circle cx="1.315" cy="1.315" r="1.315" transform="translate(-3355.127 3579.037)" fill="#fff"/><circle cx="1.315" cy="1.315" r="1.315" transform="translate(-3355.198 3596.198)" fill="#fff"/><path d="M234,444.4v3.48a.723.723,0,0,0,.763.671h13.771a.85.85,0,0,0,.377-.088l3.476-1.74a.633.633,0,0,0,0-1.166l-3.476-1.74a.851.851,0,0,0-.377-.088H234.763A.723.723,0,0,0,234,444.4Z" transform="translate(-3617.923 3077.278)" fill="#3f3d56"/><path d="M234.763,443.728h2.744v4.821h-2.744a.723.723,0,0,1-.763-.671V444.4A.723.723,0,0,1,234.763,443.728Z" transform="translate(-3617.923 3077.278)" fill="#2374de"/><path d="M965.1,505.315a10.846,10.846,0,0,1-10.473-1.845c-3.668-3.079-4.818-8.151-5.754-12.848l-2.768-13.892,5.795,3.99c4.167,2.87,8.429,5.831,11.314,9.987s4.145,9.83,1.827,14.328" transform="translate(-4017.909 3058.741)" fill="#2374de"/><path d="M977.677,544.753a56.071,56.071,0,0,0,.778-12.918,20.316,20.316,0,0,0-3.917-10.652,17.718,17.718,0,0,0-4.546-4.12c-.455-.287-.873.433-.42.719a16.846,16.846,0,0,1,6.663,8.04,27,27,0,0,1,1.434,11.632c-.151,2.37-.472,4.725-.794,7.077a.432.432,0,0,0,.291.512.419.419,0,0,0,.512-.291Z" transform="translate(-4030.98 3036.123)" fill="#f2f2f2"/><path d="M944.831,552a7.984,7.984,0,0,1-6.956,3.59c-3.521-.167-6.457-2.625-9.1-4.958l-7.817-6.9,5.173-.248c3.72-.178,7.537-.344,11.08.8s6.812,3.909,7.46,7.576" transform="translate(-4003.784 3021.319)" fill="#2374de"/><path d="M969.907,569.405c-2.823-5-6.1-10.547-11.949-12.321a13.335,13.335,0,0,0-5.026-.519c-.534.046-.4.869.132.823a12.387,12.387,0,0,1,8.02,2.122,20.846,20.846,0,0,1,5.513,5.949c.913,1.39,1.731,2.839,2.548,4.286.261.462,1.025.129.761-.339Z" transform="translate(-4021.553 3013.927)" fill="#f2f2f2"/><path d="M985.517,587.732a6.046,6.046,0,0,0-3.7-5.064v-2.888h-4.844v2.979a6.042,6.042,0,0,0-3.5,4.972l-1.139,13.239h14.329Z" transform="translate(-4032.638 3000.858)" fill="#ccc"/><path d="M138,628.631a.438.438,0,0,1,.438-.438l404.276.159c.242,0,.279.037.279.279a.438.438,0,0,1-.438.438H138.438A.438.438,0,0,1,138,628.631Z" transform="translate(-3564 2973.665)" fill="#ccc"/><path d="M377.042,442.631l1.439-.606.987-7.213h13.144l1.07,7.183,1.287.644a.306.306,0,0,1-.137.579H377.161a.306.306,0,0,1-.118-.587Z" transform="translate(-3698.164 3082.286)" fill="#ccc"/><path d="M321.079,422.416v-9.1H388.2v9.1a1.279,1.279,0,0,1-1.276,1.279H322.355a1.279,1.279,0,0,1-1.276-1.279Z" transform="translate(-3666.835 3094.363)" fill="#ccc"/><path d="M320.925,332.272a1.544,1.544,0,0,1,1.542-1.542h64.161a1.544,1.544,0,0,1,1.542,1.542v38.957H320.925Z" transform="translate(-3666.748 3140.749)" fill="#3f3d56"/><path d="M327.376,370.836V338.369a1.19,1.19,0,0,1,1.189-1.189h59.213a1.19,1.19,0,0,1,1.189,1.189v32.466a1.19,1.19,0,0,1-1.189,1.189H328.565A1.19,1.19,0,0,1,327.376,370.836Z" transform="translate(-3670.372 3137.125)" fill="#fff"/><path d="M612.1,261.193h59.342v70.856H612.1Z" transform="translate(-3830.3 3179.807)" fill="#fff"/><path d="M612.1,261.193h59.342v70.856H612.1Zm58.3,1.047H613.147V331H670.4Z" transform="translate(-3830.3 3179.807)" fill="#e5e5e5"/><rect width="41.511" height="1.604" transform="translate(-3209.284 3475.313)" fill="#f1f1f1"/><path d="M559.109,35.608h.452V19.379H543.614v.453h15.495Z" transform="translate(-3731.345 3430.115)" fill="#cbcbcb"/><path d="M506.2,39.006h15.947v-.452H506.651V22.777H506.2Z" transform="translate(-3710.33 3428.207)" fill="#cbcbcb"/><rect width="41.511" height="1.604" transform="translate(-3209.284 3479.495)" fill="#f1f1f1"/><rect width="41.511" height="1.604" transform="translate(-3209.284 3483.678)" fill="#f1f1f1"/><rect width="41.511" height="1.604" transform="translate(-3209.284 3491.039)" fill="#f1f1f1"/><rect width="41.511" height="1.604" transform="translate(-3209.284 3495.221)" fill="#f1f1f1"/><rect width="41.511" height="1.604" transform="translate(-3209.284 3499.404)" fill="#f1f1f1"/><path d="M664.226,287.79l.418-.512-.63-.718-.562.349a3.134,3.134,0,0,0-1.095-.552l-.073-.72-.953-.062-.16.685a3.134,3.134,0,0,0-1.27.424l-.474-.387-.718.63.323.52a3.134,3.134,0,0,0-.584,1.2l-.7.071-.062.953.7.165A3.133,3.133,0,0,0,658.8,291l-.387.474.63.718.52-.323a3.133,3.133,0,0,0,1.13.566l.075.748.953.062.17-.725a3.133,3.133,0,0,0,1.222-.415l.512.418.718-.63-.349-.562a3.135,3.135,0,0,0,.569-1.158l.741-.075.062-.953-.732-.171A3.134,3.134,0,0,0,664.226,287.79Zm-1,3.52a2.548,2.548,0,1,1,.233-3.6,2.548,2.548,0,0,1-.233,3.6Z" transform="translate(-3855.906 3166.112)" fill="#2374de"/><path d="M676.975,302.407l.577-.323-.323-.9-.651.118a3.133,3.133,0,0,0-.815-.916l.2-.7-.864-.408-.4.578a3.136,3.136,0,0,0-1.337-.072l-.3-.534-.9.323.109.6a3.135,3.135,0,0,0-.986.906l-.677-.191-.408.864.595.412a3.132,3.132,0,0,0-.046,1.234l-.534.3.323.9.6-.109a3.134,3.134,0,0,0,.843.941l-.2.723.864.408.424-.612a3.134,3.134,0,0,0,1.289.063l.323.577.9-.323-.118-.651a3.135,3.135,0,0,0,.955-.868l.717.2.408-.864-.618-.428A3.135,3.135,0,0,0,676.975,302.407Zm-2.222,2.907a2.548,2.548,0,1,1,1.537-3.259,2.548,2.548,0,0,1-1.537,3.259Z" transform="translate(-3862.934 3158.427)" fill="#2374de"/><path d="M693.5,294.346l.4-.529-.659-.692-.547.371a3.134,3.134,0,0,0-1.116-.508l-.1-.717-.955-.024-.133.691a3.135,3.135,0,0,0-1.252.474l-.489-.368-.692.659.343.506a3.134,3.134,0,0,0-.535,1.227l-.7.1-.024.955.711.137a3.132,3.132,0,0,0,.457,1.147l-.368.489.659.692.506-.343a3.135,3.135,0,0,0,1.152.52l.105.744.955.024.141-.731a3.135,3.135,0,0,0,1.2-.464l.529.4.692-.659-.371-.548a3.135,3.135,0,0,0,.523-1.18l.737-.1.024-.955-.738-.142A3.135,3.135,0,0,0,693.5,294.346Zm-.857,3.557a2.548,2.548,0,1,1,.089-3.6,2.548,2.548,0,0,1-.089,3.6Z" transform="translate(-3872.396 3162.364)" fill="#2374de"/><path d="M392.96,368.242l1.7-.135.211-2.455-1.652-.423a8.08,8.08,0,0,0-.926-3.024l1.211-1.42-1.586-1.885-1.561.924a8.083,8.083,0,0,0-3.055-1.608l-.125-1.572-2.455-.211-.392,1.528a8.081,8.081,0,0,0-3.284,1.062l-1.38-1.177-1.885,1.586.951,1.606a8.078,8.078,0,0,0-1.434,2.842l-1.572.125-.211,2.455,1.528.392a8.082,8.082,0,0,0,.964,3.113l-1.257,1.475,1.586,1.885,1.653-.978a8.083,8.083,0,0,0,2.953,1.533l.135,1.7,2.455.211.424-1.652a8.084,8.084,0,0,0,3.172-1.006l1.461,1.246,1.885-1.586-.987-1.668A8.083,8.083,0,0,0,392.96,368.242Zm-8.336,4.422a6.571,6.571,0,1,1,7.11-5.984A6.571,6.571,0,0,1,384.624,372.664Z" transform="translate(-3697.41 3126.311)" fill="#2374de"/><path d="M781.486,526.722H760.443c0,.6-21.687,1.1-21.687,1.1a5.634,5.634,0,0,0-.925.877,5.439,5.439,0,0,0-1.271,3.506v.877a5.481,5.481,0,0,0,5.479,5.479h39.447a5.483,5.483,0,0,0,5.479-5.479V532.2A5.486,5.486,0,0,0,781.486,526.722Z" transform="translate(-3900.208 3030.661)" fill="#3f3d56"/><rect width="5.698" height="36.818" transform="translate(-3141.612 3568.999)" fill="#3f3d56"/><path d="M749.836,629.723c0,.616,8.634.238,19.285.238s19.285.377,19.285-.238-8.634-5.5-19.285-5.5S749.836,629.107,749.836,629.723Z" transform="translate(-3907.666 2975.894)" fill="#3f3d56"/><path d="M613.409,347.869h-5.373l-2.557-13.937h7.931Z" transform="translate(-3766.095 3253.432)" fill="#ffb8b8"/><path d="M742.494,629.883H725.167v-.219a6.744,6.744,0,0,1,6.744-6.744h10.583Z" transform="translate(-3893.809 2976.627)" fill="#2f2e41"/><path d="M728.543,543.674,717.83,519.652a8.8,8.8,0,0,1,3.865-11.3l23.236-12.46,10.6-.9,9.781-.889.07.119a9.9,9.9,0,0,1,.772,7.768c-1.078,3.021-3.883,5.381-8.336,7.014-10.394,3.811-22.4,7.069-27.081,8.292a1.512,1.512,0,0,0-.969.771,1.533,1.533,0,0,0-.086,1.227l9.952,22.36a1.972,1.972,0,0,1-1.67,2.643l-7.437.542q-.095.009-.189.009A1.971,1.971,0,0,1,728.543,543.674Z" transform="translate(-3889.265 3048.985)" fill="#2f2e41"/><path d="M621.409,347.869h-5.373l-2.557-13.937h7.931Z" transform="translate(-3770.588 3253.432)" fill="#ffb8b8"/><path d="M750.494,629.883H733.167v-.219a6.744,6.744,0,0,1,6.744-6.744h10.583Z" transform="translate(-3898.303 2976.627)" fill="#2f2e41"/><path d="M737.543,546.827,726.83,522.8a8.8,8.8,0,0,1,3.865-11.3l23.236-12.46,10.6-.9,7.661-.665v-.105a9.9,9.9,0,0,1,.772,7.767c-1.078,3.021-1.691,5.381-6.145,7.014-10.394,3.811-22.4,7.069-27.081,8.292a1.513,1.513,0,0,0-.969.771,1.533,1.533,0,0,0-.086,1.227l9.952,22.36a1.972,1.972,0,0,1-1.67,2.643l-7.437.542q-.095.009-.188.009a1.971,1.971,0,0,1-1.8-1.169Z" transform="translate(-3894.321 3047.146)" fill="#2f2e41"/><path d="M786.5,451.156c-.514-.363-7.89,3.506-9.2.438,6.136-15.341,1.908-21.965,5.667-30.762a10.954,10.954,0,0,1,7.261-6.215l9.752-.492.051.024a11.4,11.4,0,0,1,6.232,12.092c-.035,9.574-5.763,16.876-3.76,23.82a2.245,2.245,0,0,1-.212,1.746,2.141,2.141,0,0,1-1.366,1.012L788.043,451.1a2.176,2.176,0,0,1-1.76-.341Z" transform="translate(-3923.089 3093.906)" fill="#2374de"/><circle cx="10.765" cy="10.765" r="10.765" transform="translate(-3137.134 3482.858)" fill="#ffb8b8"/><path d="M743.078,433.551l-18.7-14.756a4.608,4.608,0,0,1-.454.134,4.833,4.833,0,0,1-3.865-.741,4.821,4.821,0,1,1,7.455-5.055,4.634,4.634,0,0,1,.1.636l18.62,10.742,4.634-2.668,5.133,6.72-7.194,5.128A4.8,4.8,0,0,1,743.078,433.551Z" transform="translate(-3889.78 3096.552)" fill="#ffb8b8"/><path d="M796.227,436.818l-10.672-7.257,5.015-7.1a4.9,4.9,0,0,1,6.1-1.6h0a4.9,4.9,0,0,1,2.584,5.822Z" transform="translate(-3927.729 3090.39)" fill="#2374de"/><path d="M809.721,373.079c-.572.25-1.743-4.307-1.219-5.219.78-1.356.734-1.346,1.252-2.243a2.6,2.6,0,0,0-.037-2.914,1.534,1.534,0,0,0-2.529.3c.2-1.879-1.662-3.39-3.5-3.815s-3.784-.161-5.635-.539c-2.149-.438-4.384-2.24-3.527-4.6a3.327,3.327,0,0,1,.649-1.067,8.209,8.209,0,0,1,3.731-2.049c2.818-.957,5.714-1.925,8.688-1.82a12.622,12.622,0,0,1,11.153,8.156,11.464,11.464,0,0,1,.475,1.764,11.831,11.831,0,0,1-7.344,12.994Z" transform="translate(-3932.66 3130.425)" fill="#2f2e41"/><path d="M480.619,532.112v.877a5.484,5.484,0,0,0,5.479,5.479h39.447a5.481,5.481,0,0,0,5.479-5.479v-.877a5.44,5.44,0,0,0-1.271-3.506,5.642,5.642,0,0,0-.925-.877s-21.687-.491-21.687-1.1H486.1A5.486,5.486,0,0,0,480.619,532.112Z" transform="translate(-3756.448 3030.711)" fill="#3f3d56"/><rect width="5.698" height="36.818" transform="translate(-3253.158 3568.96)" fill="#3f3d56"/><path d="M513.628,624.136c-10.651,0-19.285,4.882-19.285,5.5s8.634.238,19.285.238,19.285.378,19.285-.238S524.279,624.136,513.628,624.136Z" transform="translate(-3764.156 2975.944)" fill="#3f3d56"/><path d="M443.761,332.184h7.931l-2.557,13.937h-5.373Z" transform="translate(-3675.259 3254.414)" fill="#ffb8b8"/><path d="M578.636,621.171h10.583a6.744,6.744,0,0,1,6.744,6.744v.219H578.636Z" transform="translate(-3811.503 2977.609)" fill="#2f2e41"/><path d="M549.466,543.1q-.094,0-.188-.009l-7.436-.542a1.972,1.972,0,0,1-1.67-2.643l9.952-22.36a1.533,1.533,0,0,0-.086-1.227,1.513,1.513,0,0,0-.969-.771c-4.68-1.223-16.687-4.481-27.081-8.292-4.453-1.633-7.258-3.993-8.336-7.014a9.9,9.9,0,0,1,.772-7.768l.071-.119,9.781.889,10.6.9,23.236,12.46a8.8,8.8,0,0,1,3.865,11.3l-10.713,24.022A1.971,1.971,0,0,1,549.466,543.1Z" transform="translate(-3774.725 3049.967)" fill="#2f2e41"/><path d="M437.761,332.184h7.931l-2.557,13.937h-5.373Z" transform="translate(-3671.888 3254.414)" fill="#ffb8b8"/><path d="M572.636,621.171h10.583a6.744,6.744,0,0,1,6.744,6.744v.219H572.636Z" transform="translate(-3808.133 2977.609)" fill="#2f2e41"/><path d="M542.466,546.1q-.094,0-.188-.009l-7.436-.542a1.972,1.972,0,0,1-1.67-2.643l9.952-22.36a1.533,1.533,0,0,0-.086-1.227,1.513,1.513,0,0,0-.969-.771c-4.68-1.223-16.687-4.481-27.081-8.292-4.453-1.633-7.258-3.993-8.336-7.014a9.9,9.9,0,0,1,.772-7.768l.071-.119,9.781.889,10.6.9,23.236,12.46a8.8,8.8,0,0,1,3.865,11.3l-10.713,24.022A1.971,1.971,0,0,1,542.466,546.1Z" transform="translate(-3770.793 3048.281)" fill="#2f2e41"/><path d="M495.09,414.7a4.9,4.9,0,0,1,6.251-1.22h0a4.9,4.9,0,0,1,2.192,5.917l-2.945,8.182-12.064-4.584Z" transform="translate(-3760.888 3094.626)" fill="#00b0ff"/><path d="M525.438,455.149a2.176,2.176,0,0,1-1.76.341L505.1,451.071a2.141,2.141,0,0,1-1.366-1.012,2.245,2.245,0,0,1-.212-1.746c2-6.944-.623-15.552-3.76-23.82A11.4,11.4,0,0,1,506,412.4l.05-.024,9.752.492a10.954,10.954,0,0,1,7.261,6.215c3.759,8.8,4.835,20.085,3.29,34.51a2.191,2.191,0,0,1-.913,1.555Z" transform="translate(-3767.116 3094.888)" fill="#2374de"/><circle cx="10.765" cy="10.765" r="10.765" transform="translate(-3270.165 3501.758) rotate(-80.783)" fill="#ffb8b8"/><path d="M545.832,431.942l-7.194-5.128,5.133-6.72,4.634,2.668,18.62-10.742a4.634,4.634,0,0,1,.1-.636,4.821,4.821,0,1,1,3.59,5.8,4.6,4.6,0,0,1-.454-.134l-18.7,14.756A4.8,4.8,0,0,1,545.832,431.942Z" transform="translate(-3789.037 3097.535)" fill="#ffb8b8"/><path d="M526.249,424.935a4.9,4.9,0,0,1,2.583-5.822h0a4.9,4.9,0,0,1,6.1,1.6l5.015,7.1-10.672,7.257Z" transform="translate(-3781.962 3091.372)" fill="#2374de"/><path d="M481.1,358.87a1.945,1.945,0,0,1-.26,2.273,7.673,7.673,0,0,0-1.386,6.713c.662,2.767,2.418,5.125,4.152,7.381s3.529,4.572,4.29,7.313c1.8,6.489-3.041,13.41-9.266,15.98s-13.315,1.757-19.869.208c-4.947-1.169-10.053-2.889-13.436-6.683s-4.281-10.217-.686-13.811c2.818-2.817,7.207-3.044,11.129-3.75s8.364-2.785,8.889-6.735c.522-3.925-3.155-7.169-3.848-11.067-.861-4.848,3.355-9.467,8.126-10.683s9.8.135,14.425,1.832c3.555,1.306,7.273,3.009,8.626,6.879a5.142,5.142,0,0,1-1.688,5.928c-2.826,2.017-6.459.07-9.226-1.824Z" transform="translate(-3734.943 3132.429)" fill="#2f2e41"/></g></svg>