<svg xmlns="http://www.w3.org/2000/svg" width="562.412" height="599.161" viewBox="0 0 562.412 599.161"><g transform="translate(-6636.476 -1204)"><text transform="translate(7064 1451)" fill="#e9e9e9" font-size="12" font-family="OpenSans-Bold, Open Sans" font-weight="700"><tspan x="0" y="0">ADMIN</tspan></text><path d="M774.394,707.5v-1.875c3.727,0,7.511-.078,11.247-.227l.075,1.873C781.955,707.421,778.146,707.5,774.394,707.5Zm-11.319-.217c-3.748-.146-7.55-.371-11.3-.666l.147-1.869c3.727.295,7.5.517,11.227.663Zm33.942-.691-.149-1.869c3.72-.3,7.485-.676,11.19-1.123l.225,1.862c-3.73.45-7.52.83-11.266,1.13Zm-56.51-1.093c-3.738-.448-7.51-.976-11.213-1.57l.3-1.851c3.678.59,7.425,1.115,11.138,1.559Zm78.986-1.62-.3-1.851c3.677-.594,7.4-1.274,11.064-2.019l.373,1.836c-3.689.752-7.437,1.435-11.138,2.034Zm-101.339-1.971c-3.689-.747-7.407-1.579-11.05-2.471l.446-1.822c3.619.887,7.312,1.713,10.976,2.454Zm123.525-2.547-.449-1.82c3.63-.893,7.285-1.872,10.864-2.909l.522,1.8c-3.6,1.044-7.284,2.029-10.937,2.928Zm-145.516-2.84c-3.615-1.044-7.253-2.173-10.813-3.358l.592-1.779c3.537,1.177,7.151,2.3,10.741,3.336Zm167.262-3.458-.594-1.778c3.539-1.183,7.1-2.454,10.593-3.781l.666,1.752C870.576,690.59,866.988,691.871,863.425,693.061Zm-188.773-3.7c-3.517-1.333-7.059-2.757-10.53-4.235l.735-1.725c3.447,1.468,6.966,2.883,10.46,4.206Zm209.911-4.323-.736-1.725c3.427-1.464,6.868-3.015,10.227-4.613l.806,1.693c-3.382,1.608-6.847,3.17-10.3,4.644Zm-230.788-4.569c-3.405-1.617-6.819-3.323-10.146-5.072l.872-1.659c3.3,1.736,6.7,3.432,10.078,5.037Zm251.188-5.132-.873-1.659c3.3-1.737,6.609-3.564,9.829-5.426l.939,1.622c-3.242,1.876-6.572,3.714-9.9,5.463ZM633.7,669.915c-3.267-1.888-6.53-3.864-9.7-5.871l1-1.584c3.147,1.994,6.388,3.956,9.633,5.833Zm290.831-5.9-1-1.584c3.143-1.991,6.294-4.077,9.367-6.2l1.065,1.542c-3.093,2.139-6.266,4.24-9.429,6.244Zm-309.981-6.222c-3.1-2.142-6.192-4.372-9.191-6.628l1.127-1.5c2.979,2.241,6.051,4.456,9.13,6.584Zm328.586-6.64-1.128-1.5c2.972-2.235,5.948-4.569,8.845-6.936l1.186,1.452c-2.917,2.383-5.913,4.732-8.9,6.982Zm-346.693-6.98c-2.91-2.378-5.813-4.848-8.626-7.341l1.243-1.4c2.8,2.476,5.678,4.93,8.569,7.292Zm364.216-7.337-1.243-1.4c2.793-2.475,5.574-5.041,8.265-7.625l1.3,1.353c-2.709,2.6-5.508,5.183-8.32,7.675Zm-381.166-7.683c-2.7-2.6-5.4-5.291-8.008-8l1.351-1.3c2.592,2.7,5.269,5.371,7.956,7.951Zm397.494-8-1.351-1.3c2.584-2.688,5.152-5.468,7.632-8.264l1.4,1.245c-2.5,2.814-5.082,5.613-7.683,8.319ZM563.8,612.83c-2.5-2.818-4.969-5.717-7.34-8.617l1.452-1.186c2.355,2.881,4.808,5.76,7.291,8.558Zm428.212-8.618-1.452-1.186c2.369-2.9,4.707-5.875,6.95-8.853l1.5,1.128c-2.258,3-4.612,6-7,8.911Zm-442.539-8.9c-2.259-3-4.488-6.085-6.623-9.17l1.542-1.067c2.121,3.066,4.335,6.13,6.579,9.11Zm456.168-9.2-1.542-1.065c2.129-3.079,4.222-6.237,6.218-9.386l1.584,1c-2.014,3.17-4.114,6.349-6.264,9.448Zm-469.04-9.4c-2.009-3.167-3.981-6.42-5.863-9.667l1.622-.939c1.869,3.226,3.829,6.456,5.824,9.6Zm481.178-9.748-1.622-.939c1.877-3.243,3.708-6.561,5.445-9.861l1.659.873c-1.748,3.322-3.592,6.662-5.481,9.927Zm-492.509-9.814c-1.747-3.316-3.45-6.715-5.063-10.1l1.693-.806c1.6,3.364,3.294,6.74,5.029,10.034ZM1028.341,546.9l-1.693-.806c1.6-3.376,3.164-6.832,4.632-10.274l1.725.736c-1.474,3.464-3.044,6.945-4.664,10.344ZM515.56,536.76c-1.477-3.453-2.9-6.975-4.229-10.47l1.752-.666c1.321,3.47,2.734,6.97,4.2,10.4Zm521.686-10.735-1.753-.665c1.329-3.507,2.6-7.081,3.785-10.623l1.778.593c-1.186,3.566-2.476,7.164-3.806,10.695Zm-529.726-10.4c-1.194-3.564-2.33-7.2-3.376-10.808l1.8-.522c1.04,3.583,2.168,7.195,3.354,10.735Zm536.9-11.11-1.8-.52c1.034-3.577,2.011-7.232,2.9-10.866l1.82.447c-.9,3.658-1.883,7.339-2.923,10.939ZM501.209,493.884c-.9-3.651-1.738-7.366-2.489-11.045l1.837-.375c.746,3.654,1.578,7.346,2.472,10.972Zm548.611-11.352-1.838-.373c.741-3.651,1.419-7.374,2.014-11.064l1.851.3c-.6,3.714-1.277,7.462-2.027,11.139ZM496.68,471.7c-.6-3.7-1.136-7.472-1.589-11.21l1.861-.225c.45,3.713.981,7.459,1.579,11.135Zm556.743-11.523-1.862-.223c.446-3.711.822-7.476,1.117-11.19l1.869.148c-.3,3.739-.676,7.529-1.124,11.265Zm-559.468-10.95c-.3-3.744-.533-7.547-.686-11.3l1.873-.076c.151,3.73.381,7.508.681,11.227Zm561.266-11.615-1.873-.074c.146-3.736.221-7.519.221-11.245v-.621h1.875v.617c0,3.754-.075,7.562-.223,11.323ZM494.907,426.6h-1.875v-.315c0-3.657.071-7.361.211-11l1.873.072c-.139,3.619-.21,7.3-.21,10.935Zm558.414-12.174c-.155-3.722-.387-7.5-.693-11.226l1.869-.153c.307,3.752.541,7.554.7,11.3Zm-557.547-10.3-1.869-.146c.295-3.754.669-7.545,1.112-11.267l1.862.222C496.439,396.637,496.067,400.4,495.774,404.131Zm555.714-12.116c-.452-3.7-.987-7.443-1.591-11.133l1.851-.3c.607,3.715,1.146,7.486,1.6,11.208ZM498.431,381.8l-1.851-.3c.594-3.712,1.272-7.461,2.016-11.142l1.837.371C499.7,374.389,499.022,378.113,498.431,381.8Zm549.426-11.978c-.752-3.663-1.588-7.353-2.484-10.969l1.82-.451c.9,3.64,1.744,7.355,2.5,11.043ZM502.88,359.756l-1.821-.445c.892-3.649,1.871-7.33,2.911-10.943l1.8.519c-1.033,3.589-2.006,7.246-2.891,10.87Zm539.566-11.762c-1.044-3.581-2.175-7.191-3.365-10.732l1.778-.6c1.2,3.564,2.337,7.2,3.387,10.8ZM509.1,338.144l-1.779-.591c1.186-3.57,2.464-7.169,3.8-10.7l1.754.663C511.549,331.023,510.279,334.6,509.1,338.144Zm526.182-11.467c-1.332-3.487-2.749-6.984-4.212-10.4l1.723-.739c1.473,3.434,2.9,6.954,4.241,10.465Zm-518.207-9.622-1.726-.734c1.473-3.463,3.039-6.945,4.652-10.348l1.694.8c-1.6,3.381-3.157,6.839-4.621,10.28Zm509.366-10.993c-1.6-3.36-3.3-6.734-5.039-10.029l1.657-.876c1.752,3.316,3.459,6.713,5.074,10.1Zm-499.713-9.368-1.661-.871c1.747-3.331,3.588-6.673,5.471-9.934l1.624.937c-1.87,3.239-3.7,6.559-5.434,9.867Zm489.231-10.481c-1.875-3.227-3.837-6.456-5.835-9.6l1.582-1.006c2.011,3.162,3.987,6.413,5.874,9.661Zm-477.969-9.023-1.585-1c2.011-3.18,4.114-6.361,6.25-9.455L544.2,267.8c-2.122,3.074-4.21,6.234-6.208,9.393Zm465.917-9.931c-2.126-3.064-4.344-6.127-6.589-9.1l1.5-1.13c2.261,3,4.493,6.078,6.633,9.163Zm-453.129-8.6-1.5-1.126c2.259-3.007,4.609-6.008,6.985-8.919l1.453,1.185c-2.36,2.892-4.7,5.873-6.94,8.86Zm439.589-9.34c-2.364-2.885-4.821-5.761-7.3-8.55l1.4-1.246c2.5,2.807,4.969,5.7,7.35,8.607Zm-425.363-8.093-1.4-1.242c2.489-2.812,5.071-5.614,7.674-8.328l1.353,1.3c-2.586,2.7-5.151,5.479-7.624,8.272Zm410.424-8.71c-2.594-2.692-5.273-5.364-7.965-7.942l1.3-1.354c2.709,2.6,5.406,5.286,8.017,8ZM580.575,225l-1.3-1.351c2.705-2.6,5.5-5.188,8.312-7.684l1.245,1.4c-2.792,2.48-5.57,5.048-8.257,7.634Zm378.613-8.039c-2.8-2.477-5.687-4.927-8.577-7.283l1.185-1.453c2.909,2.372,5.815,4.838,8.634,7.332Zm-361.8-6.89-1.188-1.45c2.909-2.382,5.9-4.734,8.9-6.992l1.129,1.5c-2.975,2.242-5.948,4.579-8.837,6.945Zm344.359-7.327c-2.991-2.245-6.065-4.457-9.136-6.575l1.064-1.543c3.092,2.132,6.187,4.359,9.2,6.619Zm-326.415-6.2L614.263,195c3.09-2.142,6.261-4.246,9.423-6.254l1.005,1.583c-3.142,1.995-6.291,4.084-9.36,6.212Zm307.882-6.575c-3.161-2-6.4-3.955-9.641-5.821l.937-1.624c3.257,1.878,6.522,3.85,9.7,5.86ZM634.291,184.5l-.941-1.622c3.241-1.88,6.569-3.721,9.889-5.473l.875,1.658c-3.3,1.74-6.6,3.569-9.823,5.437ZM903.7,178.712c-3.311-1.735-6.7-3.426-10.084-5.026l.8-1.694c3.4,1.611,6.82,3.314,10.152,5.06Zm-249.56-4.687-.807-1.693c3.38-1.612,6.843-3.178,10.292-4.655l.738,1.723c-3.425,1.467-6.865,3.023-10.222,4.624Zm229.192-4.955c-3.445-1.463-6.966-2.874-10.465-4.2l.663-1.754c3.521,1.33,7.067,2.751,10.534,4.224Zm-208.571-3.876-.668-1.752c3.508-1.337,7.094-2.622,10.66-3.818l.6,1.778c-3.541,1.188-7.1,2.464-10.588,3.792Zm187.477-4.087c-3.543-1.175-7.157-2.293-10.745-3.323l.518-1.8c3.611,1.037,7.25,2.163,10.816,3.345Zm-166.155-3.066-.524-1.8c3.605-1.049,7.284-2.039,10.934-2.942l.45,1.82c-3.626.9-7.28,1.88-10.861,2.921ZM840.626,154.9c-3.619-.883-7.313-1.7-10.979-2.442l.37-1.838c3.69.742,7.409,1.57,11.053,2.458Zm-122.709-2.257-.376-1.836c3.675-.752,7.422-1.441,11.136-2.046l.3,1.85c-3.69.6-7.411,1.286-11.062,2.033Zm100.662-2.18c-3.687-.588-7.435-1.109-11.14-1.547l.221-1.862c3.73.442,7.5.966,11.214,1.558Zm-78.467-1.437-.227-1.861c3.729-.454,7.519-.839,11.264-1.143l.152,1.868c-3.72.3-7.485.684-11.189,1.136Zm56.134-1.209c-3.716-.29-7.494-.508-11.228-.65l.071-1.874c3.759.143,7.561.363,11.3.654Zm-33.719-.614-.077-1.873c3.748-.155,7.557-.236,11.32-.243l0,1.875C770.036,146.969,766.252,147.05,762.528,147.2Z" transform="translate(6143.444 1080.807)" fill="#ccc"/><circle cx="180.909" cy="180.909" r="180.909" transform="translate(6637.474 1320.776)" fill="#3f3d56"/><ellipse cx="96.079" cy="132.167" rx="96.079" ry="132.167" transform="translate(6658.096 1369.518)" fill="#fff"/><ellipse cx="26.814" cy="42.181" rx="26.814" ry="42.181" transform="translate(6695.512 1487.504)" fill="#3f3d56"/><circle cx="17.81" cy="17.81" r="17.81" transform="translate(7156.007 1382.845)" fill="#6c63ff"/><circle cx="26.246" cy="26.246" r="26.246" transform="translate(6941.846 1204)" fill="#6c63ff"/><circle cx="17.81" cy="17.81" r="17.81" transform="translate(6932.895 1767.541)" fill="#6c63ff"/></g></svg>